<mxfile>
    <diagram id="4scZN0-B17So3khi3SKT" name="Current network">
        <mxGraphModel dx="1163" dy="880" grid="1" gridSize="10" guides="1" tooltips="1" connect="1" arrows="1" fold="1" page="1" pageScale="1" pageWidth="850" pageHeight="1100" math="0" shadow="0">
            <root>
                <mxCell id="0"/>
                <mxCell id="1" parent="0"/>
                <mxCell id="102" value="" style="rounded=1;whiteSpace=wrap;html=1;fillColor=#f5f5f5;fontColor=#333333;strokeColor=none;" parent="1" vertex="1">
                    <mxGeometry x="620" y="316" width="210" height="420" as="geometry"/>
                </mxCell>
                <mxCell id="120" style="edgeStyle=orthogonalEdgeStyle;rounded=0;orthogonalLoop=1;jettySize=auto;html=1;exitX=1;exitY=0.5;exitDx=0;exitDy=0;startArrow=none;startFill=0;" parent="1" source="118" target="7" edge="1">
                    <mxGeometry relative="1" as="geometry"/>
                </mxCell>
                <mxCell id="118" value="" style="rounded=1;whiteSpace=wrap;html=1;fillColor=#e1d5e7;fontStyle=1;strokeColor=none;" parent="1" vertex="1">
                    <mxGeometry x="40" y="250" width="350" height="158" as="geometry"/>
                </mxCell>
                <mxCell id="119" style="edgeStyle=orthogonalEdgeStyle;rounded=0;orthogonalLoop=1;jettySize=auto;html=1;exitX=1;exitY=0.5;exitDx=0;exitDy=0;startArrow=none;startFill=0;" parent="1" source="116" target="7" edge="1">
                    <mxGeometry relative="1" as="geometry"/>
                </mxCell>
                <mxCell id="116" value="" style="rounded=1;whiteSpace=wrap;html=1;fillColor=#dae8fc;fontStyle=1;strokeColor=none;" parent="1" vertex="1">
                    <mxGeometry x="40" y="447" width="347.5" height="158" as="geometry"/>
                </mxCell>
                <mxCell id="111" style="edgeStyle=elbowEdgeStyle;rounded=0;orthogonalLoop=1;jettySize=auto;html=1;exitX=1;exitY=0.5;exitDx=0;exitDy=0;startArrow=none;startFill=0;" parent="1" source="104" target="7" edge="1">
                    <mxGeometry relative="1" as="geometry">
                        <Array as="points">
                            <mxPoint x="520" y="590"/>
                            <mxPoint x="520" y="630"/>
                        </Array>
                    </mxGeometry>
                </mxCell>
                <mxCell id="104" value="" style="rounded=1;whiteSpace=wrap;html=1;fillColor=#f5f5f5;fontColor=#333333;strokeColor=none;" parent="1" vertex="1">
                    <mxGeometry x="40" y="648" width="350" height="162" as="geometry"/>
                </mxCell>
                <mxCell id="121" style="edgeStyle=orthogonalEdgeStyle;rounded=0;orthogonalLoop=1;jettySize=auto;html=1;startArrow=classic;startFill=1;endArrow=none;endFill=0;" parent="1" source="4" target="7" edge="1">
                    <mxGeometry relative="1" as="geometry">
                        <Array as="points">
                            <mxPoint x="610" y="620"/>
                            <mxPoint x="610" y="526"/>
                        </Array>
                    </mxGeometry>
                </mxCell>
                <mxCell id="2" value="" style="pointerEvents=1;shadow=0;dashed=0;html=1;strokeColor=none;labelPosition=center;verticalLabelPosition=bottom;verticalAlign=top;outlineConnect=0;align=center;shape=mxgraph.office.devices.router;fillColor=#505050;" parent="1" vertex="1">
                    <mxGeometry x="172.5" y="483" width="55" height="56" as="geometry"/>
                </mxCell>
                <mxCell id="123" style="edgeStyle=orthogonalEdgeStyle;rounded=0;orthogonalLoop=1;jettySize=auto;html=1;" edge="1" parent="1" source="3" target="122">
                    <mxGeometry relative="1" as="geometry"/>
                </mxCell>
                <mxCell id="Q3S6wovdmFIvhqe3d907-123" style="edgeStyle=orthogonalEdgeStyle;rounded=0;orthogonalLoop=1;jettySize=auto;html=1;startArrow=classic;startFill=1;endArrow=none;endFill=0;fontSize=12;" edge="1" parent="1" source="3" target="7">
                    <mxGeometry relative="1" as="geometry">
                        <Array as="points">
                            <mxPoint x="610" y="428"/>
                            <mxPoint x="610" y="526"/>
                        </Array>
                    </mxGeometry>
                </mxCell>
                <mxCell id="3" value="MySQL" style="pointerEvents=1;shadow=0;dashed=0;html=1;strokeColor=none;labelPosition=center;verticalLabelPosition=bottom;verticalAlign=top;outlineConnect=0;align=center;shape=mxgraph.office.servers.database_server;fillColor=#505050;" parent="1" vertex="1">
                    <mxGeometry x="661" y="400" width="43" height="56" as="geometry"/>
                </mxCell>
                <mxCell id="4" value="Servidor Web" style="pointerEvents=1;shadow=0;dashed=0;html=1;strokeColor=none;labelPosition=center;verticalLabelPosition=bottom;verticalAlign=top;outlineConnect=0;align=center;shape=mxgraph.office.servers.server_generic;fillColor=#505050;" parent="1" vertex="1">
                    <mxGeometry x="710.5" y="596" width="27" height="52" as="geometry"/>
                </mxCell>
                <mxCell id="6" value="" style="pointerEvents=1;shadow=0;dashed=0;html=1;strokeColor=none;aspect=fixed;labelPosition=center;verticalLabelPosition=bottom;verticalAlign=top;align=center;outlineConnect=0;shape=mxgraph.vvd.vpn;fillColor=#505050;" parent="1" vertex="1">
                    <mxGeometry x="273" y="324" width="50" height="50" as="geometry"/>
                </mxCell>
                <mxCell id="7" value="" style="pointerEvents=1;shadow=0;dashed=0;html=1;strokeColor=none;fillColor=#505050;labelPosition=center;verticalLabelPosition=bottom;outlineConnect=0;verticalAlign=top;align=center;shape=mxgraph.office.clouds.cloud;" parent="1" vertex="1">
                    <mxGeometry x="480" y="504" width="71.5" height="44" as="geometry"/>
                </mxCell>
                <mxCell id="9" value="" style="pointerEvents=1;shadow=0;dashed=0;html=1;strokeColor=none;labelPosition=center;verticalLabelPosition=bottom;verticalAlign=top;outlineConnect=0;align=center;shape=mxgraph.office.devices.modem;fillColor=#4274AD;" parent="1" vertex="1">
                    <mxGeometry x="239" y="290" width="54" height="34" as="geometry"/>
                </mxCell>
                <mxCell id="14" value="" style="shape=image;verticalLabelPosition=bottom;verticalAlign=top;imageAspect=0;image=https://forum.vivaldi.net/assets/uploads/category/category-112.png;aspect=fixed;" parent="1" vertex="1">
                    <mxGeometry x="138.5" y="319" width="34" height="34" as="geometry"/>
                </mxCell>
                <mxCell id="15" value="EstaciÃ³n&#10;Campbell" style="shape=image;verticalLabelPosition=bottom;verticalAlign=top;imageAspect=0;image=data:image/svg+xml,PHN2ZyB4bWxucz0iaHR0cDovL3d3dy53My5vcmcvMjAwMC9zdmciIHhtbG5zOnhsaW5rPSJodHRwOi8vd3d3LnczLm9yZy8xOTk5L3hsaW5rIiB2ZXJzaW9uPSIxLjEiIHg9IjBweCIgeT0iMHB4IiB3aWR0aD0iNTAiIGhlaWdodD0iNTAiIHZpZXdCb3g9IjAgMCAxMDAwIDEwMDAiIGVuYWJsZS1iYWNrZ3JvdW5kPSJuZXcgMCAwIDEwMCAxMDAiIHhtbDpzcGFjZT0icHJlc2VydmUiPiYjeGE7PG1ldGFkYXRhPiBTdmcgVmVjdG9yIEljb25zIDogaHR0cDovL3d3dy5vbmxpbmV3ZWJmb250cy5jb20vaWNvbiA8L21ldGFkYXRhPiYjeGE7PGc+PHBhdGggc3R5bGU9ImZpbGw6IzUwNTA1MDsiIGQ9Ik04NzUuOSw5MGgtODB2MTI4aDQyYzEuNC0wLjEsMi44LTAuNCw0LjItMC40YzI3LDAsNDguOSwyMS45LDQ4LjksNDguOHMtMjEuOSw0OC44LTQ4LjksNDguOGMtMy43LDAtNy4zLTAuNS0xMC43LTEuM0gyMzZoLTMyaC0zNS41Yy0zLjUsMC44LTcsMS4zLTEwLjcsMS4zYy0zLjcsMC03LjMtMC41LTEwLjctMS4zaC03LjF2LTIuMmMtMTguMi03LjEtMzEuMS0yNC43LTMxLjEtNDUuNHMxMi45LTM4LjMsMzEuMS00NS40di0zaDEzLjZjMS40LTAuMSwyLjctMC40LDQuMi0wLjRzMi44LDAuMyw0LjIsMC40aDQydi00OGgzMnY0OEg3NjRWOTBoLTk2djI4bC04MCwzNmwyMi45LTcxLjRMNTg4LDEwbDgwLDM2djI4aDIwOFY0Mmw2NCw0MGwtNjQsNDBWOTBMODc1LjksOTB6IE0yNjgsMTU0aC05NnYtNDhoOTZWMTU0eiBNMzIyLjgsMTE5LjljLTIxLjMsMC0zOS41LTEyLjItNDguNy0yOS45aC00OC43Yy04LjQsNy45LTIxLDEzLjItMzQuOSwxNS42Yy0wLjcsMC4xLTEuMi02LjQtMS41LTE1LjZoLTI1LjRjLTkuMSwxNy43LTI3LjQsMjkuOS00OC43LDI5LjljLTMwLjQsMC01NS0yNC42LTU1LTU0LjljMC0zMC4zLDI0LjYtNTQuOSw1NS01NC45YzI4LDAsNTAuOCwyMSw1NC4zLDQ4aDE5LjZjMC4yLTE1LjcsMC44LTI5LjMsMS43LTI5LjRjMjEuMy0yLjIsMzkuMywxMiw0NC4xLDI5LjRoMzMuOGMzLjUtMjcsMjYuMy00OCw1NC4zLTQ4YzMwLjQsMCw1NSwyNC42LDU1LDU0LjlTMzUzLjIsMTE5LjksMzIyLjgsMTE5Ljl6IE00NjAsMzQ2aDgwdjgwaC04MFYzNDZ6IE00NTUuMSw3OTMuOWg4MFY5OTBoLTgwVjc5My45eiBNNDYwLDQ1Ny45aDgwaDQ4aDE0NHYyODhINTcyaC0zMmgtODBoLTE2SDI1MnYtMjg4aDE3Nkg0NjB6IE01MTguMyw3MDUuOWMzNiwwLDY2LjMtMjUuOCw3Ni4xLTYxaC0yNS44Yy04LjUsMjEuNS0yNy44LDM2LjYtNTAuMywzNi42Yy0zMC40LDAtNTUtMjcuMy01NS02MWMwLTMzLjcsMjQuNi02MSw1NS02MWMxNy45LDAsMzMuNyw5LjcsNDMuNywyNC40SDU5MEM1NzcuMyw1NTUsNTUwLDUzNSw1MTguMyw1MzVjLTQzLjksMC03OS40LDM4LjMtNzkuNCw4NS41QzQzOC45LDY2Ny42LDQ3NC41LDcwNS45LDUxOC4zLDcwNS45eiBNNDAyLjIsNTEwLjZjLTEzLjUsMC0yNC40LDEwLjktMjQuNCwyNC40YzAsMTMuNSwxMC45LDI0LjQsMjQuNCwyNC40czI0LjQtMTAuOSwyNC40LTI0LjRDNDI2LjcsNTIxLjUsNDE1LjcsNTEwLjYsNDAyLjIsNTEwLjZ6IE00MDIuMiw1NDcuMmMtNi43LDAtMTIuMi01LjUtMTIuMi0xMi4yczUuNS0xMi4yLDEyLjItMTIuMnMxMi4yLDUuNSwxMi4yLDEyLjJDNDE0LjUsNTQxLjcsNDA5LDU0Ny4yLDQwMi4yLDU0Ny4yeiIvPjwvZz4mI3hhOzwvc3ZnPg==" parent="1" vertex="1">
                    <mxGeometry x="57.5" y="473" width="71.5" height="80" as="geometry"/>
                </mxCell>
                <mxCell id="17" value="" style="pointerEvents=1;shadow=0;dashed=0;html=1;strokeColor=none;aspect=fixed;labelPosition=center;verticalLabelPosition=bottom;verticalAlign=top;align=center;outlineConnect=0;shape=mxgraph.vvd.vpn;fillColor=#505050;" parent="1" vertex="1">
                    <mxGeometry x="315.5" y="517" width="43" height="43" as="geometry"/>
                </mxCell>
                <mxCell id="18" value="" style="pointerEvents=1;shadow=0;dashed=0;html=1;strokeColor=none;labelPosition=center;verticalLabelPosition=bottom;verticalAlign=top;outlineConnect=0;align=center;shape=mxgraph.office.devices.modem;fillColor=#4274AD;" parent="1" vertex="1">
                    <mxGeometry x="281.5" y="483" width="54" height="34" as="geometry"/>
                </mxCell>
                <mxCell id="20" value="" style="pointerEvents=1;shadow=0;dashed=0;html=1;strokeColor=none;labelPosition=center;verticalLabelPosition=bottom;verticalAlign=top;outlineConnect=0;align=center;shape=mxgraph.office.devices.router;fillColor=#505050;" parent="1" vertex="1">
                    <mxGeometry x="260.5" y="701" width="55" height="56" as="geometry"/>
                </mxCell>
                <mxCell id="21" value="EstaciÃ³n&#10;Campbell" style="shape=image;verticalLabelPosition=bottom;verticalAlign=top;imageAspect=0;image=data:image/svg+xml,PHN2ZyB4bWxucz0iaHR0cDovL3d3dy53My5vcmcvMjAwMC9zdmciIHhtbG5zOnhsaW5rPSJodHRwOi8vd3d3LnczLm9yZy8xOTk5L3hsaW5rIiB2ZXJzaW9uPSIxLjEiIHg9IjBweCIgeT0iMHB4IiB3aWR0aD0iNTAiIGhlaWdodD0iNTAiIHZpZXdCb3g9IjAgMCAxMDAwIDEwMDAiIGVuYWJsZS1iYWNrZ3JvdW5kPSJuZXcgMCAwIDEwMCAxMDAiIHhtbDpzcGFjZT0icHJlc2VydmUiPiYjeGE7PG1ldGFkYXRhPiBTdmcgVmVjdG9yIEljb25zIDogaHR0cDovL3d3dy5vbmxpbmV3ZWJmb250cy5jb20vaWNvbiA8L21ldGFkYXRhPiYjeGE7PGc+PHBhdGggc3R5bGU9ImZpbGw6IzUwNTA1MDsiIGQ9Ik04NzUuOSw5MGgtODB2MTI4aDQyYzEuNC0wLjEsMi44LTAuNCw0LjItMC40YzI3LDAsNDguOSwyMS45LDQ4LjksNDguOHMtMjEuOSw0OC44LTQ4LjksNDguOGMtMy43LDAtNy4zLTAuNS0xMC43LTEuM0gyMzZoLTMyaC0zNS41Yy0zLjUsMC44LTcsMS4zLTEwLjcsMS4zYy0zLjcsMC03LjMtMC41LTEwLjctMS4zaC03LjF2LTIuMmMtMTguMi03LjEtMzEuMS0yNC43LTMxLjEtNDUuNHMxMi45LTM4LjMsMzEuMS00NS40di0zaDEzLjZjMS40LTAuMSwyLjctMC40LDQuMi0wLjRzMi44LDAuMyw0LjIsMC40aDQydi00OGgzMnY0OEg3NjRWOTBoLTk2djI4bC04MCwzNmwyMi45LTcxLjRMNTg4LDEwbDgwLDM2djI4aDIwOFY0Mmw2NCw0MGwtNjQsNDBWOTBMODc1LjksOTB6IE0yNjgsMTU0aC05NnYtNDhoOTZWMTU0eiBNMzIyLjgsMTE5LjljLTIxLjMsMC0zOS41LTEyLjItNDguNy0yOS45aC00OC43Yy04LjQsNy45LTIxLDEzLjItMzQuOSwxNS42Yy0wLjcsMC4xLTEuMi02LjQtMS41LTE1LjZoLTI1LjRjLTkuMSwxNy43LTI3LjQsMjkuOS00OC43LDI5LjljLTMwLjQsMC01NS0yNC42LTU1LTU0LjljMC0zMC4zLDI0LjYtNTQuOSw1NS01NC45YzI4LDAsNTAuOCwyMSw1NC4zLDQ4aDE5LjZjMC4yLTE1LjcsMC44LTI5LjMsMS43LTI5LjRjMjEuMy0yLjIsMzkuMywxMiw0NC4xLDI5LjRoMzMuOGMzLjUtMjcsMjYuMy00OCw1NC4zLTQ4YzMwLjQsMCw1NSwyNC42LDU1LDU0LjlTMzUzLjIsMTE5LjksMzIyLjgsMTE5Ljl6IE00NjAsMzQ2aDgwdjgwaC04MFYzNDZ6IE00NTUuMSw3OTMuOWg4MFY5OTBoLTgwVjc5My45eiBNNDYwLDQ1Ny45aDgwaDQ4aDE0NHYyODhINTcyaC0zMmgtODBoLTE2SDI1MnYtMjg4aDE3Nkg0NjB6IE01MTguMyw3MDUuOWMzNiwwLDY2LjMtMjUuOCw3Ni4xLTYxaC0yNS44Yy04LjUsMjEuNS0yNy44LDM2LjYtNTAuMywzNi42Yy0zMC40LDAtNTUtMjcuMy01NS02MWMwLTMzLjcsMjQuNi02MSw1NS02MWMxNy45LDAsMzMuNyw5LjcsNDMuNywyNC40SDU5MEM1NzcuMyw1NTUsNTUwLDUzNSw1MTguMyw1MzVjLTQzLjksMC03OS40LDM4LjMtNzkuNCw4NS41QzQzOC45LDY2Ny42LDQ3NC41LDcwNS45LDUxOC4zLDcwNS45eiBNNDAyLjIsNTEwLjZjLTEzLjUsMC0yNC40LDEwLjktMjQuNCwyNC40YzAsMTMuNSwxMC45LDI0LjQsMjQuNCwyNC40czI0LjQtMTAuOSwyNC40LTI0LjRDNDI2LjcsNTIxLjUsNDE1LjcsNTEwLjYsNDAyLjIsNTEwLjZ6IE00MDIuMiw1NDcuMmMtNi43LDAtMTIuMi01LjUtMTIuMi0xMi4yczUuNS0xMi4yLDEyLjItMTIuMnMxMi4yLDUuNSwxMi4yLDEyLjJDNDE0LjUsNTQxLjcsNDA5LDU0Ny4yLDQwMi4yLDU0Ny4yeiIvPjwvZz4mI3hhOzwvc3ZnPg==" parent="1" vertex="1">
                    <mxGeometry x="101" y="677" width="71.5" height="80" as="geometry"/>
                </mxCell>
                <mxCell id="103" value="CECATEV" style="text;html=1;strokeColor=none;fillColor=none;align=center;verticalAlign=middle;whiteSpace=wrap;rounded=0;" parent="1" vertex="1">
                    <mxGeometry x="704" y="346" width="40" height="20" as="geometry"/>
                </mxCell>
                <mxCell id="112" value="EstaciÃ³n&#10;Davis Vantage" style="shape=image;verticalLabelPosition=bottom;verticalAlign=top;imageAspect=0;aspect=fixed;image=data:image/svg+xml,PHN2ZyB4bWxucz0iaHR0cDovL3d3dy53My5vcmcvMjAwMC9zdmciIHhtbG5zOnhsaW5rPSJodHRwOi8vd3d3LnczLm9yZy8xOTk5L3hsaW5rIiB2ZXJzaW9uPSIxLjEiIHg9IjBweCIgeT0iMHB4IiB3aWR0aD0iNzAiIGhlaWdodD0iODAiIHZpZXdCb3g9IjAgMCAxMDAwIDEwMDAiIGVuYWJsZS1iYWNrZ3JvdW5kPSJuZXcgMCAwIDEwMCAxMDAiIHhtbDpzcGFjZT0icHJlc2VydmUiPiYjeGE7PG1ldGFkYXRhPiBTdmcgVmVjdG9yIEljb25zIDogaHR0cDovL3d3dy5vbmxpbmV3ZWJmb250cy5jb20vaWNvbiA8L21ldGFkYXRhPiYjeGE7PGc+PHBhdGggc3R5bGU9ImZpbGw6IzFlMzg0YTsiIGQ9Ik04NzUuOSw5MGgtODB2MTI4aDQyYzEuNC0wLjEsMi44LTAuNCw0LjItMC40YzI3LDAsNDguOSwyMS45LDQ4LjksNDguOHMtMjEuOSw0OC44LTQ4LjksNDguOGMtMy43LDAtNy4zLTAuNS0xMC43LTEuM0gyMzZoLTMyaC0zNS41Yy0zLjUsMC44LTcsMS4zLTEwLjcsMS4zYy0zLjcsMC03LjMtMC41LTEwLjctMS4zaC03LjF2LTIuMmMtMTguMi03LjEtMzEuMS0yNC43LTMxLjEtNDUuNHMxMi45LTM4LjMsMzEuMS00NS40di0zaDEzLjZjMS40LTAuMSwyLjctMC40LDQuMi0wLjRzMi44LDAuMyw0LjIsMC40aDQydi00OGgzMnY0OEg3NjRWOTBoLTk2djI4bC04MCwzNmwyMi45LTcxLjRMNTg4LDEwbDgwLDM2djI4aDIwOFY0Mmw2NCw0MGwtNjQsNDBWOTBMODc1LjksOTB6IE0yNjgsMTU0aC05NnYtNDhoOTZWMTU0eiBNMzIyLjgsMTE5LjljLTIxLjMsMC0zOS41LTEyLjItNDguNy0yOS45aC00OC43Yy04LjQsNy45LTIxLDEzLjItMzQuOSwxNS42Yy0wLjcsMC4xLTEuMi02LjQtMS41LTE1LjZoLTI1LjRjLTkuMSwxNy43LTI3LjQsMjkuOS00OC43LDI5LjljLTMwLjQsMC01NS0yNC42LTU1LTU0LjljMC0zMC4zLDI0LjYtNTQuOSw1NS01NC45YzI4LDAsNTAuOCwyMSw1NC4zLDQ4aDE5LjZjMC4yLTE1LjcsMC44LTI5LjMsMS43LTI5LjRjMjEuMy0yLjIsMzkuMywxMiw0NC4xLDI5LjRoMzMuOGMzLjUtMjcsMjYuMy00OCw1NC4zLTQ4YzMwLjQsMCw1NSwyNC42LDU1LDU0LjlTMzUzLjIsMTE5LjksMzIyLjgsMTE5Ljl6IE00NjAsMzQ2aDgwdjgwaC04MFYzNDZ6IE00NTUuMSw3OTMuOWg4MFY5OTBoLTgwVjc5My45eiBNNDYwLDQ1Ny45aDgwaDQ4aDE0NHYyODhINTcyaC0zMmgtODBoLTE2SDI1MnYtMjg4aDE3Nkg0NjB6IE01MTguMyw3MDUuOWMzNiwwLDY2LjMtMjUuOCw3Ni4xLTYxaC0yNS44Yy04LjUsMjEuNS0yNy44LDM2LjYtNTAuMywzNi42Yy0zMC40LDAtNTUtMjcuMy01NS02MWMwLTMzLjcsMjQuNi02MSw1NS02MWMxNy45LDAsMzMuNyw5LjcsNDMuNywyNC40SDU5MEM1NzcuMyw1NTUsNTUwLDUzNSw1MTguMyw1MzVjLTQzLjksMC03OS40LDM4LjMtNzkuNCw4NS41QzQzOC45LDY2Ny42LDQ3NC41LDcwNS45LDUxOC4zLDcwNS45eiBNNDAyLjIsNTEwLjZjLTEzLjUsMC0yNC40LDEwLjktMjQuNCwyNC40YzAsMTMuNSwxMC45LDI0LjQsMjQuNCwyNC40czI0LjQtMTAuOSwyNC40LTI0LjRDNDI2LjcsNTIxLjUsNDE1LjcsNTEwLjYsNDAyLjIsNTEwLjZ6IE00MDIuMiw1NDcuMmMtNi43LDAtMTIuMi01LjUtMTIuMi0xMi4yczUuNS0xMi4yLDEyLjItMTIuMnMxMi4yLDUuNSwxMi4yLDEyLjJDNDE0LjUsNTQxLjcsNDA5LDU0Ny4yLDQwMi4yLDU0Ny4yeiIvPjwvZz4mI3hhOzwvc3ZnPg==" parent="1" vertex="1">
                    <mxGeometry x="91" y="270" width="70" height="80" as="geometry"/>
                </mxCell>
                <mxCell id="115" value="" style="shape=image;verticalLabelPosition=bottom;verticalAlign=top;imageAspect=0;image=https://forum.vivaldi.net/assets/uploads/category/category-112.png;aspect=fixed;" parent="1" vertex="1">
                    <mxGeometry x="105" y="525" width="34" height="34" as="geometry"/>
                </mxCell>
                <mxCell id="122" value="MongoDB" style="pointerEvents=1;shadow=0;dashed=0;html=1;strokeColor=none;fillColor=#505050;labelPosition=center;verticalLabelPosition=bottom;verticalAlign=top;outlineConnect=0;align=center;shape=mxgraph.office.servers.database_server_blue;" vertex="1" parent="1">
                    <mxGeometry x="760" y="400" width="43" height="56" as="geometry"/>
                </mxCell>
            </root>
        </mxGraphModel>
    </diagram>
    <diagram id="Ii62P5QNztwHuS18KqET" name="Davis_Rpi">
        <mxGraphModel dx="1163" dy="880" grid="1" gridSize="10" guides="1" tooltips="1" connect="1" arrows="1" fold="1" page="1" pageScale="1" pageWidth="850" pageHeight="1100" math="0" shadow="0">
            <root>
                <mxCell id="sYanEPDdnc8YtzLc0oei-0"/>
                <mxCell id="sYanEPDdnc8YtzLc0oei-1" parent="sYanEPDdnc8YtzLc0oei-0"/>
                <mxCell id="jv1RP_fgSBLs1SFQht-o-6" style="edgeStyle=orthogonalEdgeStyle;rounded=0;orthogonalLoop=1;jettySize=auto;html=1;exitX=1;exitY=0.5;exitDx=0;exitDy=0;startArrow=classic;startFill=1;endArrow=classic;endFill=1;fontSize=12;" edge="1" parent="sYanEPDdnc8YtzLc0oei-1" source="vA0XghxFTMRYqx40oBeO-0" target="vA0XghxFTMRYqx40oBeO-2">
                    <mxGeometry relative="1" as="geometry"/>
                </mxCell>
                <mxCell id="jv1RP_fgSBLs1SFQht-o-7" value="Ethernet" style="edgeLabel;html=1;align=center;verticalAlign=middle;resizable=0;points=[];fontSize=12;" vertex="1" connectable="0" parent="jv1RP_fgSBLs1SFQht-o-6">
                    <mxGeometry x="0.1986" y="-4" relative="1" as="geometry">
                        <mxPoint x="-10" y="-4" as="offset"/>
                    </mxGeometry>
                </mxCell>
                <mxCell id="vA0XghxFTMRYqx40oBeO-0" value="" style="rounded=1;whiteSpace=wrap;html=1;fontStyle=1;strokeColor=none;fillColor=#F7E8EE;" vertex="1" parent="sYanEPDdnc8YtzLc0oei-1">
                    <mxGeometry x="280" y="226.5" width="210" height="290" as="geometry"/>
                </mxCell>
                <mxCell id="vA0XghxFTMRYqx40oBeO-1" value="" style="pointerEvents=1;shadow=0;dashed=0;html=1;strokeColor=none;aspect=fixed;labelPosition=center;verticalLabelPosition=bottom;verticalAlign=top;align=center;outlineConnect=0;shape=mxgraph.vvd.vpn;fillColor=#505050;" vertex="1" parent="sYanEPDdnc8YtzLc0oei-1">
                    <mxGeometry x="415.5" y="258.5" width="39" height="39" as="geometry"/>
                </mxCell>
                <mxCell id="jv1RP_fgSBLs1SFQht-o-12" style="edgeStyle=orthogonalEdgeStyle;rounded=0;orthogonalLoop=1;jettySize=auto;html=1;startArrow=classic;startFill=1;endArrow=classic;endFill=1;fontSize=12;" edge="1" parent="sYanEPDdnc8YtzLc0oei-1" source="vA0XghxFTMRYqx40oBeO-2" target="jv1RP_fgSBLs1SFQht-o-0">
                    <mxGeometry relative="1" as="geometry"/>
                </mxCell>
                <mxCell id="vA0XghxFTMRYqx40oBeO-2" value="" style="pointerEvents=1;shadow=0;dashed=0;html=1;strokeColor=none;labelPosition=center;verticalLabelPosition=bottom;verticalAlign=top;outlineConnect=0;align=center;shape=mxgraph.office.devices.modem;fillColor=#4274AD;" vertex="1" parent="sYanEPDdnc8YtzLc0oei-1">
                    <mxGeometry x="600" y="346.5" width="80" height="50" as="geometry"/>
                </mxCell>
                <mxCell id="vA0XghxFTMRYqx40oBeO-3" value="Raspberry Pi" style="shape=image;verticalLabelPosition=bottom;verticalAlign=top;imageAspect=0;image=https://forum.vivaldi.net/assets/uploads/category/category-112.png;aspect=fixed;" vertex="1" parent="sYanEPDdnc8YtzLc0oei-1">
                    <mxGeometry x="354.5" y="236.5" width="61" height="61" as="geometry"/>
                </mxCell>
                <mxCell id="jv1RP_fgSBLs1SFQht-o-3" style="edgeStyle=orthogonalEdgeStyle;rounded=0;orthogonalLoop=1;jettySize=auto;html=1;exitX=1;exitY=0.5;exitDx=0;exitDy=0;entryX=0;entryY=0.5;entryDx=0;entryDy=0;dashed=1;startArrow=classic;startFill=1;endArrow=classic;endFill=1;dashPattern=1 1;" edge="1" parent="sYanEPDdnc8YtzLc0oei-1" source="vA0XghxFTMRYqx40oBeO-4" target="vA0XghxFTMRYqx40oBeO-0">
                    <mxGeometry relative="1" as="geometry"/>
                </mxCell>
                <mxCell id="jv1RP_fgSBLs1SFQht-o-4" value="ConexiÃ³n serial" style="edgeLabel;html=1;align=center;verticalAlign=middle;resizable=0;points=[];fontSize=12;" vertex="1" connectable="0" parent="jv1RP_fgSBLs1SFQht-o-3">
                    <mxGeometry x="-0.3501" y="-1" relative="1" as="geometry">
                        <mxPoint x="21.67" y="-1" as="offset"/>
                    </mxGeometry>
                </mxCell>
                <mxCell id="vA0XghxFTMRYqx40oBeO-4" value="EstaciÃ³n&#10;Davis Vantage" style="shape=image;verticalLabelPosition=bottom;verticalAlign=top;imageAspect=0;aspect=fixed;image=data:image/svg+xml,PHN2ZyB4bWxucz0iaHR0cDovL3d3dy53My5vcmcvMjAwMC9zdmciIHhtbG5zOnhsaW5rPSJodHRwOi8vd3d3LnczLm9yZy8xOTk5L3hsaW5rIiB2ZXJzaW9uPSIxLjEiIHg9IjBweCIgeT0iMHB4IiB3aWR0aD0iNzAiIGhlaWdodD0iODAiIHZpZXdCb3g9IjAgMCAxMDAwIDEwMDAiIGVuYWJsZS1iYWNrZ3JvdW5kPSJuZXcgMCAwIDEwMCAxMDAiIHhtbDpzcGFjZT0icHJlc2VydmUiPiYjeGE7PG1ldGFkYXRhPiBTdmcgVmVjdG9yIEljb25zIDogaHR0cDovL3d3dy5vbmxpbmV3ZWJmb250cy5jb20vaWNvbiA8L21ldGFkYXRhPiYjeGE7PGc+PHBhdGggc3R5bGU9ImZpbGw6IzFlMzg0YTsiIGQ9Ik04NzUuOSw5MGgtODB2MTI4aDQyYzEuNC0wLjEsMi44LTAuNCw0LjItMC40YzI3LDAsNDguOSwyMS45LDQ4LjksNDguOHMtMjEuOSw0OC44LTQ4LjksNDguOGMtMy43LDAtNy4zLTAuNS0xMC43LTEuM0gyMzZoLTMyaC0zNS41Yy0zLjUsMC44LTcsMS4zLTEwLjcsMS4zYy0zLjcsMC03LjMtMC41LTEwLjctMS4zaC03LjF2LTIuMmMtMTguMi03LjEtMzEuMS0yNC43LTMxLjEtNDUuNHMxMi45LTM4LjMsMzEuMS00NS40di0zaDEzLjZjMS40LTAuMSwyLjctMC40LDQuMi0wLjRzMi44LDAuMyw0LjIsMC40aDQydi00OGgzMnY0OEg3NjRWOTBoLTk2djI4bC04MCwzNmwyMi45LTcxLjRMNTg4LDEwbDgwLDM2djI4aDIwOFY0Mmw2NCw0MGwtNjQsNDBWOTBMODc1LjksOTB6IE0yNjgsMTU0aC05NnYtNDhoOTZWMTU0eiBNMzIyLjgsMTE5LjljLTIxLjMsMC0zOS41LTEyLjItNDguNy0yOS45aC00OC43Yy04LjQsNy45LTIxLDEzLjItMzQuOSwxNS42Yy0wLjcsMC4xLTEuMi02LjQtMS41LTE1LjZoLTI1LjRjLTkuMSwxNy43LTI3LjQsMjkuOS00OC43LDI5LjljLTMwLjQsMC01NS0yNC42LTU1LTU0LjljMC0zMC4zLDI0LjYtNTQuOSw1NS01NC45YzI4LDAsNTAuOCwyMSw1NC4zLDQ4aDE5LjZjMC4yLTE1LjcsMC44LTI5LjMsMS43LTI5LjRjMjEuMy0yLjIsMzkuMywxMiw0NC4xLDI5LjRoMzMuOGMzLjUtMjcsMjYuMy00OCw1NC4zLTQ4YzMwLjQsMCw1NSwyNC42LDU1LDU0LjlTMzUzLjIsMTE5LjksMzIyLjgsMTE5Ljl6IE00NjAsMzQ2aDgwdjgwaC04MFYzNDZ6IE00NTUuMSw3OTMuOWg4MFY5OTBoLTgwVjc5My45eiBNNDYwLDQ1Ny45aDgwaDQ4aDE0NHYyODhINTcyaC0zMmgtODBoLTE2SDI1MnYtMjg4aDE3Nkg0NjB6IE01MTguMyw3MDUuOWMzNiwwLDY2LjMtMjUuOCw3Ni4xLTYxaC0yNS44Yy04LjUsMjEuNS0yNy44LDM2LjYtNTAuMywzNi42Yy0zMC40LDAtNTUtMjcuMy01NS02MWMwLTMzLjcsMjQuNi02MSw1NS02MWMxNy45LDAsMzMuNyw5LjcsNDMuNywyNC40SDU5MEM1NzcuMyw1NTUsNTUwLDUzNSw1MTguMyw1MzVjLTQzLjksMC03OS40LDM4LjMtNzkuNCw4NS41QzQzOC45LDY2Ny42LDQ3NC41LDcwNS45LDUxOC4zLDcwNS45eiBNNDAyLjIsNTEwLjZjLTEzLjUsMC0yNC40LDEwLjktMjQuNCwyNC40YzAsMTMuNSwxMC45LDI0LjQsMjQuNCwyNC40czI0LjQtMTAuOSwyNC40LTI0LjRDNDI2LjcsNTIxLjUsNDE1LjcsNTEwLjYsNDAyLjIsNTEwLjZ6IE00MDIuMiw1NDcuMmMtNi43LDAtMTIuMi01LjUtMTIuMi0xMi4yczUuNS0xMi4yLDEyLjItMTIuMnMxMi4yLDUuNSwxMi4yLDEyLjJDNDE0LjUsNTQxLjcsNDA5LDU0Ny4yLDQwMi4yLDU0Ny4yeiIvPjwvZz4mI3hhOzwvc3ZnPg==" vertex="1" parent="sYanEPDdnc8YtzLc0oei-1">
                    <mxGeometry x="30" y="314.35" width="100" height="114.29" as="geometry"/>
                </mxCell>
                <mxCell id="vA0XghxFTMRYqx40oBeO-5" value="MySQL" style="shadow=0;dashed=0;html=1;strokeColor=none;fillColor=#505050;labelPosition=center;verticalLabelPosition=bottom;verticalAlign=top;outlineConnect=0;align=center;shape=mxgraph.office.databases.database;" vertex="1" parent="sYanEPDdnc8YtzLc0oei-1">
                    <mxGeometry x="310" y="436.5" width="35" height="49" as="geometry"/>
                </mxCell>
                <mxCell id="jv1RP_fgSBLs1SFQht-o-0" value="UACJ" style="pointerEvents=1;shadow=0;dashed=0;html=1;strokeColor=none;fillColor=#505050;labelPosition=center;verticalLabelPosition=bottom;outlineConnect=0;verticalAlign=top;align=center;shape=mxgraph.office.clouds.cloud;" vertex="1" parent="sYanEPDdnc8YtzLc0oei-1">
                    <mxGeometry x="760" y="349.5" width="71.5" height="44" as="geometry"/>
                </mxCell>
                <mxCell id="jv1RP_fgSBLs1SFQht-o-1" value="Archivos&lt;br&gt;web" style="pointerEvents=1;shadow=0;dashed=0;html=1;strokeColor=none;fillColor=#505050;labelPosition=center;verticalLabelPosition=bottom;verticalAlign=top;outlineConnect=0;align=center;shape=mxgraph.office.concepts.folder;" vertex="1" parent="sYanEPDdnc8YtzLc0oei-1">
                    <mxGeometry x="425" y="446" width="33" height="30" as="geometry"/>
                </mxCell>
                <mxCell id="jv1RP_fgSBLs1SFQht-o-10" style="edgeStyle=orthogonalEdgeStyle;rounded=0;orthogonalLoop=1;jettySize=auto;html=1;startArrow=classic;startFill=1;endArrow=classic;endFill=1;fontSize=12;" edge="1" parent="sYanEPDdnc8YtzLc0oei-1" source="jv1RP_fgSBLs1SFQht-o-8" target="vA0XghxFTMRYqx40oBeO-5">
                    <mxGeometry relative="1" as="geometry"/>
                </mxCell>
                <mxCell id="jv1RP_fgSBLs1SFQht-o-11" style="edgeStyle=orthogonalEdgeStyle;rounded=0;orthogonalLoop=1;jettySize=auto;html=1;startArrow=classic;startFill=1;endArrow=classic;endFill=1;fontSize=12;" edge="1" parent="sYanEPDdnc8YtzLc0oei-1" source="jv1RP_fgSBLs1SFQht-o-8" target="jv1RP_fgSBLs1SFQht-o-1">
                    <mxGeometry relative="1" as="geometry"/>
                </mxCell>
                <mxCell id="jv1RP_fgSBLs1SFQht-o-8" value="WeeWX" style="pointerEvents=1;shadow=0;dashed=0;html=1;strokeColor=none;fillColor=#505050;labelPosition=center;verticalLabelPosition=bottom;verticalAlign=top;outlineConnect=0;align=center;shape=mxgraph.office.concepts.settings_office_365;fontSize=12;" vertex="1" parent="sYanEPDdnc8YtzLc0oei-1">
                    <mxGeometry x="361" y="347.14" width="48" height="48" as="geometry"/>
                </mxCell>
            </root>
        </mxGraphModel>
    </diagram>
    <diagram id="fkfVmSmegwn3kGyqs3Lm" name="Campbell_Rpi">
        <mxGraphModel dx="1163" dy="880" grid="1" gridSize="10" guides="1" tooltips="1" connect="1" arrows="1" fold="1" page="1" pageScale="1" pageWidth="850" pageHeight="1100" math="0" shadow="0">
            <root>
                <mxCell id="YqxvIkAloc3BH33AwQ8u-0"/>
                <mxCell id="YqxvIkAloc3BH33AwQ8u-1" parent="YqxvIkAloc3BH33AwQ8u-0"/>
                <mxCell id="rGKWuxFZ2XXtwcDqYxT3-2" value="EstaciÃ³n&#10;Campbell" style="shape=image;verticalLabelPosition=bottom;verticalAlign=top;imageAspect=0;image=data:image/svg+xml,PHN2ZyB4bWxucz0iaHR0cDovL3d3dy53My5vcmcvMjAwMC9zdmciIHhtbG5zOnhsaW5rPSJodHRwOi8vd3d3LnczLm9yZy8xOTk5L3hsaW5rIiB2ZXJzaW9uPSIxLjEiIHg9IjBweCIgeT0iMHB4IiB3aWR0aD0iNTAiIGhlaWdodD0iNTAiIHZpZXdCb3g9IjAgMCAxMDAwIDEwMDAiIGVuYWJsZS1iYWNrZ3JvdW5kPSJuZXcgMCAwIDEwMCAxMDAiIHhtbDpzcGFjZT0icHJlc2VydmUiPiYjeGE7PG1ldGFkYXRhPiBTdmcgVmVjdG9yIEljb25zIDogaHR0cDovL3d3dy5vbmxpbmV3ZWJmb250cy5jb20vaWNvbiA8L21ldGFkYXRhPiYjeGE7PGc+PHBhdGggc3R5bGU9ImZpbGw6IzUwNTA1MDsiIGQ9Ik04NzUuOSw5MGgtODB2MTI4aDQyYzEuNC0wLjEsMi44LTAuNCw0LjItMC40YzI3LDAsNDguOSwyMS45LDQ4LjksNDguOHMtMjEuOSw0OC44LTQ4LjksNDguOGMtMy43LDAtNy4zLTAuNS0xMC43LTEuM0gyMzZoLTMyaC0zNS41Yy0zLjUsMC44LTcsMS4zLTEwLjcsMS4zYy0zLjcsMC03LjMtMC41LTEwLjctMS4zaC03LjF2LTIuMmMtMTguMi03LjEtMzEuMS0yNC43LTMxLjEtNDUuNHMxMi45LTM4LjMsMzEuMS00NS40di0zaDEzLjZjMS40LTAuMSwyLjctMC40LDQuMi0wLjRzMi44LDAuMyw0LjIsMC40aDQydi00OGgzMnY0OEg3NjRWOTBoLTk2djI4bC04MCwzNmwyMi45LTcxLjRMNTg4LDEwbDgwLDM2djI4aDIwOFY0Mmw2NCw0MGwtNjQsNDBWOTBMODc1LjksOTB6IE0yNjgsMTU0aC05NnYtNDhoOTZWMTU0eiBNMzIyLjgsMTE5LjljLTIxLjMsMC0zOS41LTEyLjItNDguNy0yOS45aC00OC43Yy04LjQsNy45LTIxLDEzLjItMzQuOSwxNS42Yy0wLjcsMC4xLTEuMi02LjQtMS41LTE1LjZoLTI1LjRjLTkuMSwxNy43LTI3LjQsMjkuOS00OC43LDI5LjljLTMwLjQsMC01NS0yNC42LTU1LTU0LjljMC0zMC4zLDI0LjYtNTQuOSw1NS01NC45YzI4LDAsNTAuOCwyMSw1NC4zLDQ4aDE5LjZjMC4yLTE1LjcsMC44LTI5LjMsMS43LTI5LjRjMjEuMy0yLjIsMzkuMywxMiw0NC4xLDI5LjRoMzMuOGMzLjUtMjcsMjYuMy00OCw1NC4zLTQ4YzMwLjQsMCw1NSwyNC42LDU1LDU0LjlTMzUzLjIsMTE5LjksMzIyLjgsMTE5Ljl6IE00NjAsMzQ2aDgwdjgwaC04MFYzNDZ6IE00NTUuMSw3OTMuOWg4MFY5OTBoLTgwVjc5My45eiBNNDYwLDQ1Ny45aDgwaDQ4aDE0NHYyODhINTcyaC0zMmgtODBoLTE2SDI1MnYtMjg4aDE3Nkg0NjB6IE01MTguMyw3MDUuOWMzNiwwLDY2LjMtMjUuOCw3Ni4xLTYxaC0yNS44Yy04LjUsMjEuNS0yNy44LDM2LjYtNTAuMywzNi42Yy0zMC40LDAtNTUtMjcuMy01NS02MWMwLTMzLjcsMjQuNi02MSw1NS02MWMxNy45LDAsMzMuNyw5LjcsNDMuNywyNC40SDU5MEM1NzcuMyw1NTUsNTUwLDUzNSw1MTguMyw1MzVjLTQzLjksMC03OS40LDM4LjMtNzkuNCw4NS41QzQzOC45LDY2Ny42LDQ3NC41LDcwNS45LDUxOC4zLDcwNS45eiBNNDAyLjIsNTEwLjZjLTEzLjUsMC0yNC40LDEwLjktMjQuNCwyNC40YzAsMTMuNSwxMC45LDI0LjQsMjQuNCwyNC40czI0LjQtMTAuOSwyNC40LTI0LjRDNDI2LjcsNTIxLjUsNDE1LjcsNTEwLjYsNDAyLjIsNTEwLjZ6IE00MDIuMiw1NDcuMmMtNi43LDAtMTIuMi01LjUtMTIuMi0xMi4yczUuNS0xMi4yLDEyLjItMTIuMnMxMi4yLDUuNSwxMi4yLDEyLjJDNDE0LjUsNTQxLjcsNDA5LDU0Ny4yLDQwMi4yLDU0Ny4yeiIvPjwvZz4mI3hhOzwvc3ZnPg==" vertex="1" parent="YqxvIkAloc3BH33AwQ8u-1">
                    <mxGeometry x="203.75" y="180" width="102.5" height="114" as="geometry"/>
                </mxCell>
                <mxCell id="uy79VE2Ufi42uAieB149-0" style="edgeStyle=orthogonalEdgeStyle;rounded=0;orthogonalLoop=1;jettySize=auto;html=1;exitX=1;exitY=0.5;exitDx=0;exitDy=0;startArrow=classic;startFill=1;endArrow=classic;endFill=1;fontSize=12;" edge="1" parent="YqxvIkAloc3BH33AwQ8u-1" source="uy79VE2Ufi42uAieB149-2" target="uy79VE2Ufi42uAieB149-5">
                    <mxGeometry relative="1" as="geometry">
                        <Array as="points">
                            <mxPoint x="590" y="552"/>
                        </Array>
                    </mxGeometry>
                </mxCell>
                <mxCell id="uy79VE2Ufi42uAieB149-1" value="Ethernet" style="edgeLabel;html=1;align=center;verticalAlign=middle;resizable=0;points=[];fontSize=12;" vertex="1" connectable="0" parent="uy79VE2Ufi42uAieB149-0">
                    <mxGeometry x="0.1986" y="-4" relative="1" as="geometry">
                        <mxPoint x="-10" y="-4" as="offset"/>
                    </mxGeometry>
                </mxCell>
                <mxCell id="uy79VE2Ufi42uAieB149-2" value="" style="rounded=1;whiteSpace=wrap;html=1;fontStyle=1;fillColor=#dae8fc;strokeColor=none;" vertex="1" parent="YqxvIkAloc3BH33AwQ8u-1">
                    <mxGeometry x="150" y="406.5" width="210" height="290" as="geometry"/>
                </mxCell>
                <mxCell id="uy79VE2Ufi42uAieB149-3" value="" style="pointerEvents=1;shadow=0;dashed=0;html=1;strokeColor=none;aspect=fixed;labelPosition=center;verticalLabelPosition=bottom;verticalAlign=top;align=center;outlineConnect=0;shape=mxgraph.vvd.vpn;fillColor=#505050;" vertex="1" parent="YqxvIkAloc3BH33AwQ8u-1">
                    <mxGeometry x="285.5" y="438.5" width="39" height="39" as="geometry"/>
                </mxCell>
                <mxCell id="uy79VE2Ufi42uAieB149-4" style="edgeStyle=orthogonalEdgeStyle;rounded=0;orthogonalLoop=1;jettySize=auto;html=1;startArrow=classic;startFill=1;endArrow=classic;endFill=1;fontSize=12;" edge="1" parent="YqxvIkAloc3BH33AwQ8u-1" source="uy79VE2Ufi42uAieB149-5" target="uy79VE2Ufi42uAieB149-11">
                    <mxGeometry relative="1" as="geometry"/>
                </mxCell>
                <mxCell id="uy79VE2Ufi42uAieB149-5" value="" style="pointerEvents=1;shadow=0;dashed=0;html=1;strokeColor=none;labelPosition=center;verticalLabelPosition=bottom;verticalAlign=top;outlineConnect=0;align=center;shape=mxgraph.office.devices.modem;fillColor=#4274AD;" vertex="1" parent="YqxvIkAloc3BH33AwQ8u-1">
                    <mxGeometry x="550" y="356.5" width="80" height="50" as="geometry"/>
                </mxCell>
                <mxCell id="uy79VE2Ufi42uAieB149-6" value="Raspberry Pi" style="shape=image;verticalLabelPosition=bottom;verticalAlign=top;imageAspect=0;image=https://forum.vivaldi.net/assets/uploads/category/category-112.png;aspect=fixed;" vertex="1" parent="YqxvIkAloc3BH33AwQ8u-1">
                    <mxGeometry x="224.5" y="416.5" width="61" height="61" as="geometry"/>
                </mxCell>
                <mxCell id="uy79VE2Ufi42uAieB149-7" style="edgeStyle=orthogonalEdgeStyle;rounded=0;orthogonalLoop=1;jettySize=auto;html=1;exitX=1;exitY=0.5;exitDx=0;exitDy=0;startArrow=classic;startFill=1;endArrow=classic;endFill=1;" edge="1" parent="YqxvIkAloc3BH33AwQ8u-1" source="rGKWuxFZ2XXtwcDqYxT3-2" target="uy79VE2Ufi42uAieB149-5">
                    <mxGeometry relative="1" as="geometry">
                        <mxPoint x="299" y="237.14499999999998" as="sourcePoint"/>
                        <Array as="points">
                            <mxPoint x="590" y="237"/>
                        </Array>
                    </mxGeometry>
                </mxCell>
                <mxCell id="uy79VE2Ufi42uAieB149-8" value="Ethernet" style="edgeLabel;html=1;align=center;verticalAlign=middle;resizable=0;points=[];fontSize=12;" vertex="1" connectable="0" parent="uy79VE2Ufi42uAieB149-7">
                    <mxGeometry x="-0.3501" y="-1" relative="1" as="geometry">
                        <mxPoint x="21.67" y="-1" as="offset"/>
                    </mxGeometry>
                </mxCell>
                <mxCell id="uy79VE2Ufi42uAieB149-10" value="MySQL" style="shadow=0;dashed=0;html=1;strokeColor=none;fillColor=#505050;labelPosition=center;verticalLabelPosition=bottom;verticalAlign=top;outlineConnect=0;align=center;shape=mxgraph.office.databases.database;" vertex="1" parent="YqxvIkAloc3BH33AwQ8u-1">
                    <mxGeometry x="180" y="616.5" width="35" height="49" as="geometry"/>
                </mxCell>
                <mxCell id="uy79VE2Ufi42uAieB149-11" value="UACJ" style="pointerEvents=1;shadow=0;dashed=0;html=1;strokeColor=none;fillColor=#505050;labelPosition=center;verticalLabelPosition=bottom;outlineConnect=0;verticalAlign=top;align=center;shape=mxgraph.office.clouds.cloud;" vertex="1" parent="YqxvIkAloc3BH33AwQ8u-1">
                    <mxGeometry x="710" y="359.5" width="71.5" height="44" as="geometry"/>
                </mxCell>
                <mxCell id="uy79VE2Ufi42uAieB149-12" value="Archivos&lt;br&gt;web" style="pointerEvents=1;shadow=0;dashed=0;html=1;strokeColor=none;fillColor=#505050;labelPosition=center;verticalLabelPosition=bottom;verticalAlign=top;outlineConnect=0;align=center;shape=mxgraph.office.concepts.folder;" vertex="1" parent="YqxvIkAloc3BH33AwQ8u-1">
                    <mxGeometry x="295" y="626" width="33" height="30" as="geometry"/>
                </mxCell>
                <mxCell id="uy79VE2Ufi42uAieB149-13" style="edgeStyle=orthogonalEdgeStyle;rounded=0;orthogonalLoop=1;jettySize=auto;html=1;startArrow=classic;startFill=1;endArrow=classic;endFill=1;fontSize=12;" edge="1" parent="YqxvIkAloc3BH33AwQ8u-1" source="uy79VE2Ufi42uAieB149-15" target="uy79VE2Ufi42uAieB149-10">
                    <mxGeometry relative="1" as="geometry"/>
                </mxCell>
                <mxCell id="uy79VE2Ufi42uAieB149-14" style="edgeStyle=orthogonalEdgeStyle;rounded=0;orthogonalLoop=1;jettySize=auto;html=1;startArrow=classic;startFill=1;endArrow=classic;endFill=1;fontSize=12;" edge="1" parent="YqxvIkAloc3BH33AwQ8u-1" source="uy79VE2Ufi42uAieB149-15" target="uy79VE2Ufi42uAieB149-12">
                    <mxGeometry relative="1" as="geometry"/>
                </mxCell>
                <mxCell id="uy79VE2Ufi42uAieB149-15" value="WeeWX" style="pointerEvents=1;shadow=0;dashed=0;html=1;strokeColor=none;fillColor=#505050;labelPosition=center;verticalLabelPosition=bottom;verticalAlign=top;outlineConnect=0;align=center;shape=mxgraph.office.concepts.settings_office_365;fontSize=12;" vertex="1" parent="YqxvIkAloc3BH33AwQ8u-1">
                    <mxGeometry x="231" y="527.14" width="48" height="48" as="geometry"/>
                </mxCell>
            </root>
        </mxGraphModel>
    </diagram>
</mxfile>
